<svg width="25" height="25" viewBox="0 0 25 25" fill="none" xmlns="http://www.w3.org/2000/svg">
<path d="M21.9775 8.17164C21.3103 8.91059 20.3448 9.375 19.2708 9.375C17.2572 9.375 15.6249 7.74271 15.6249 5.72917C15.6249 4.65516 16.0893 3.68962 16.8283 3.02239M21.9775 8.17164C22.5805 9.48984 22.9166 10.9556 22.9166 12.5C22.9166 18.2529 18.2528 22.9167 12.4999 22.9167C6.74695 22.9167 2.08325 18.2529 2.08325 12.5C2.08325 6.74703 6.74695 2.08333 12.4999 2.08333C14.0443 2.08333 15.5101 2.4194 16.8283 3.02239M21.9775 8.17164C20.9372 5.89745 19.1024 4.06269 16.8283 3.02239" stroke="" stroke-width="1.5"/>
<path d="M10.4167 8.33333H10.424" stroke="" stroke-width="2" stroke-linecap="round" stroke-linejoin="round"/>
<path d="M7.29175 14.5833H7.29892" stroke="" stroke-width="2" stroke-linecap="round" stroke-linejoin="round"/>
<path d="M16.6667 16.6667C16.6667 17.8173 15.734 18.75 14.5833 18.75C13.4327 18.75 12.5 17.8173 12.5 16.6667C12.5 15.516 13.4327 14.5833 14.5833 14.5833C15.734 14.5833 16.6667 15.516 16.6667 16.6667Z" stroke="" stroke-width="1.5"/>
</svg>
